Simulation
nRows=31
nColumns=15
endheader
time  TH_x TH_y TH_z SC_y  SC_z  SC_x  AC_y  AC_z  AC_x  GH_y  GH_z  GH_yy  EL_x  PS_y
8.073123595505619  0.000000  0.000000  0.000000  -24.101693375892342  5.44801260033787  2.485685176138857  56.14287075181757  8.97898175403968  2.879373844824955  -161.13338025885858  3.5991138828311153  -140.94791729020199  16.869964609077226  120.000000
8.113288389513109  0.000000  0.000000  0.000000  -23.809489425867046  5.448406381184662  2.324944837153858  55.94686215507386  8.948215374295437  2.8571243550831045  -171.05314718968685  3.0776439771996924  -131.33190398310427  16.361827500709254  120.000000
8.153453183520599  0.000000  0.000000  0.000000  -23.508940647263145  5.377087196125388  2.1493099606768067  55.80709827412155  8.991569805815042  2.8332334607763077  173.16400639917373  2.488865750461616  -115.99162165224116  15.776365374997095  120.000000
8.19361797752809  0.000000  0.000000  0.000000  -23.210569669719884  5.244340318711059  1.9599958718551378  55.71293102852796  9.123503396142628  2.8145793353642303  145.07876540039058  2.048516545347817  -88.51677030421324  15.142645662846974  120.000000
8.23378277153558  0.000000  0.000000  0.000000  -22.931308133756012  5.0703763050294395  1.7621192893469815  55.649463018875046  9.362018395689091  2.8079558588602933  106.6376502343154  2.277454442059272  -50.878117155110566  14.493221649306342  120.000000
8.273947565543072  0.000000  0.000000  0.000000  -22.685376007567385  4.8849530081374875  1.562735569062494  55.59748852624756  9.721812075368314  2.820833494961445  79.58901453222141  3.417918292247534  -24.832737286313876  13.861912197275522  120.000000
8.314112359550561  0.000000  0.000000  0.000000  -22.4793027359772  4.719674288297194  1.3715530033153607  55.53451879423103  10.204740746479676  2.8580084331333655  65.81915228858755  5.195923273308921  -12.262326660838175  13.278910008914046  120.000000
8.354277153558053  0.000000  0.000000  0.000000  -22.309053519949973  4.599271421032964  1.200811434955087  55.43850894549824  10.798054651292471  2.9226020823442838  58.56433056343854  7.421149676973163  -6.38449234914425  12.763385691992802  120.000000
8.394441947565543  0.000000  0.000000  0.000000  -22.15805665200732  4.5377555714040705  1.0624315259226358  55.29473675679046  11.476821567881174  3.0215907896321768  54.37661034446079  10.005764677286972  -3.7213785959337238  12.32220160173041  120.000000
8.434606741573035  0.000000  0.000000  0.000000  -22.00175185838718  4.538739942775273  0.9661877984289294  55.10119275750758  12.209766122689473  3.1623214871155856  51.74457560327947  12.888804666580654  -2.7215677679160133  11.951420042468495  120.000000
8.474771535580524  0.000000  0.000000  0.000000  -21.81651158101909  4.600091782219564  0.9199139578752034  54.863704725241774  12.963186087194092  3.3497536201367772  49.94646104634954  16.010405854238478  -2.6186728223551405  11.641262546033595  120.000000
8.514936329588014  0.000000  0.000000  0.000000  -21.588760361874265  4.717210886522003  0.9309440124879146  54.59317974720283  13.704440797508004  3.5854744111662833  48.60984997063029  19.307347933673586  -2.998523274628467  11.38030959048754  120.000000
8.555101123595506  0.000000  0.000000  0.000000  -21.319279800429925  4.8834623578565575  1.0073042419708098  54.30498431695026  14.405155111455212  3.867094939414967  47.53371767205132  22.716062069105377  -3.625615889606083  11.15808850884952  120.000000
8.595265917602996  0.000000  0.000000  0.000000  -21.02359990586789  5.090139193219501  1.158325943669872  54.01874201661201  15.043259665167907  4.187777985220546  46.608009406533334  26.17697425696549  -4.3663769423939  10.967122753071456  120.000000
8.635430711610487  0.000000  0.000000  0.000000  -20.72891594290604  5.3266182766480314  1.3947246130087196  53.75782706449717  15.603667171907345  4.5367393716827875  45.77139500147226  29.63681625887605  -5.146588942351872  10.802780721931573  120.000000
8.675595505617977  0.000000  0.000000  0.000000  -20.468191955306978  5.5813572963994185  1.7277279773094718  53.54702164263393  16.077452644817832  4.900890304232843  44.987053971361625  33.04849801394922  -5.925935879008525  10.662002281293484  120.000000
8.715760299625469  0.000000  0.000000  0.000000  -20.274137130470436  5.843605144480524  2.1675118810342155  53.40975695293255  16.46082767972262  5.266984219940943  44.22883114323373  36.36983295393297  -6.681373582955881  10.543014953470198  120.000000
8.755925093632959  0.000000  0.000000  0.000000  -20.17338526268202  6.105122619538524  2.7218182358376333  53.36378401806555  16.754433378280872  5.623600916104865  43.477609264523  39.5617193698022  -7.400879320486868  10.444729171459151  120.000000
8.79608988764045  0.000000  0.000000  0.000000  -20.182262549583186  6.360705116714775  3.394707656918095  53.418950404777334  16.962381123639386  5.963882983937579  42.71934026844927  42.58632997212931  -8.08009118242454  10.365914232474637  120.000000
8.83625468164794  0.000000  0.000000  0.000000  -20.304869137387016  6.607924346132465  4.185345236736813  53.57718212359265  17.090915662158924  6.286939126318669  41.94348372578893  45.407103739804974  -8.719753886375893  10.30554757102094  120.000000
8.87641947565543  0.000000  0.000000  0.000000  -20.5338970784367  6.846380963022728  5.087558525315776  53.83321261279225  17.14734018501798  6.5971689479590045  41.14259130150665  47.99019917160481  -9.323735508779269  10.263497040016214  120.000000
8.916584269662922  0.000000  0.000000  0.000000  -20.85417460514379  7.077002391876207  6.0899037131265095  54.175594603860546  17.13962229272627  6.902548369075998  40.312543078464735  50.30699604683955  -9.897243592199207  10.240503997364572  120.000000
8.956749063670411  0.000000  0.000000  0.000000  -21.247627686253068  7.3017239466853825  7.176690183579268  54.588381947159434  17.076415314154147  7.2126906603157135  39.45394446248742  52.337215694448275  -10.445384468380663  10.236938246986888  120.000000
8.996913857677903  0.000000  0.000000  0.000000  -21.69713831524547  7.522428900534184  8.329171540493377  55.05311107614593  16.967094692670972  7.536629741494378  38.57226599206342  54.07244156343276  -10.970103571748162  10.251622527326269  120.000000
9.037078651685393  0.000000  0.000000  0.000000  -22.18873794836912  7.740005635181335  9.526548833504998  55.550182249363026  16.822056625665507  7.880475605410054  37.67831479367344  55.51841672231251  -11.46777881635208  10.280996095346973  120.000000
9.077243445692885  0.000000  0.000000  0.000000  -22.712270557884015  7.953768791775262  10.746747652292827  56.05993578126128  16.65261845360119  8.246080936488175  36.78775005118469  56.69459329925305  -11.928502583148841  10.31900410831922  120.000000
9.117408239700374  0.000000  0.000000  0.000000  -23.25999828066287  8.161001999161575  11.966651190363752  56.56333739050373  16.47095770864875  8.630102153778845  35.91965163665146  57.63129900685166  -12.337935456696089  10.3577403674118  120.000000
9.157573033707866  0.000000  0.000000  0.000000  -23.824096595683336  8.357358655865104  13.162340146717803  57.04264486933986  16.28925414545019  9.02426954074842  35.094211909346335  58.36490605781613  -12.680358609063202  10.38888958720602  120.000000
9.197737827715356  0.000000  0.000000  0.000000  -24.394272436685178  8.536922193703079  14.309579584810171  57.48296248848114  16.118174331954005  9.415751956845632  34.331032801468695  58.933018445168884  -12.942898997713655  10.405576248142225  120.000000
9.237902621722846  0.000000  0.000000  0.000000  -24.955353864044156  8.693035031816171  15.383656885934903  57.873263404015965  15.964832313169763  9.788543152813592  33.64785395525584  59.37052621907913  -13.119450256528623  10.40427882976748  120.000000
9.278067415730337  0.000000  0.000000  0.000000  -25.48629465076795  8.82006090042575  16.359484421558626  58.20701417293507  15.831450574969512  10.124810890147288  33.059697444758406  59.706613940426685  -13.213145556489714  10.385864696693057  120.000000
